<svg xmlns="http://www.w3.org/2000/svg" height="48" viewBox="0 -960 960 960" width="48"><path d="M516-451v-154q0-14.15-9-24.075Q498-639 482-639t-25.5 9q-9.5 9-9.5 25.193V-439q0 9.304 4 17.652T461-408l110 109q10.267 12 24.133 11.5Q609-288 620-299.343q11-9.344 11-23.829 0-14.485-11-25.828L516-451ZM479-61q-79 0-148-30t-121-80.5q-52-50.5-82-120.228T98-441q0-79 30-148t82-120.5Q262-761 331-792t148-31q79 0 148 31t120 82.5Q798-658 829-589t31 148q0 80-31 149.5t-82 120Q696-121 627-91T479-61ZM46.343-695Q36-705.267 37-718.633 38-732 48-744l133-128q10-10 23.5-9t24.5 10.343q11 10.344 10.5 24.329Q239-832.343 228-822L95-694q-10.343 12-24.328 11.5T46.343-695Zm865.314 0q-10.344 12-24.329 12.5Q873.343-682 863-694L731-822q-12-10.343-12.5-24.328t11.5-24.329Q740-880 753.5-881t25.148 9.648L911-743q10 11.511 10 24.756Q921-705 911.657-695Z"/></svg>