<svg xmlns="http://www.w3.org/2000/svg" height="48" viewBox="0 -960 960 960" width="48"><path d="M372-178q-29.576 0-54.455-14.676Q292.667-207.353 274-232L136-427q-19-23.746-19-52.873T136-534l138-194q16.667-25.118 42.545-40.059Q342.424-783 372-783h398q38.463 0 65.231 27.269Q862-728.463 862-691v422q0 37.05-26.769 64.025Q808.463-178 770-178H372Zm189-249 71 70q10 11 25.5 11t26.5-11.214q11-11.215 11-27Q695-400 684-411l-71-69 70-71q11-10.267 11-25.633Q694-592 683-603.5q-11-9.5-27-9.5t-26 9l-69 71-71-72q-12.267-9-26.633-9Q449-614 438-604.5q-12 11.5-12 27.367 0 15.866 12 26.133l70 71-71 70q-12 11.267-11.5 26.133Q426-369 438.214-358q11.215 11 26.5 11Q480-347 492-358l69-69Z"/></svg>