<svg xmlns="http://www.w3.org/2000/svg" height="48" viewBox="0 -960 960 960" width="48"><path d="M253-99q-36.462 0-64.231-26.775Q161-152.55 161-190v-552h-11q-18.75 0-31.375-12.86Q106-767.719 106-787.36 106-807 118.613-820q12.612-13 31.387-13h182q0-20 13.125-33.5T378-880h204q19.625 0 33.312 13.75Q629-852.5 629-833h179.921q20.279 0 33.179 13.375 12.9 13.376 12.9 32.116 0 20.141-12.9 32.825Q829.2-742 809-742h-11v552q0 37.45-27.069 64.225Q743.863-99 706-99H253Zm104-205q0 14.1 11.051 25.05 11.051 10.95 25.3 10.95t25.949-10.95Q431-289.9 431-304v-324q0-14.525-11.843-26.262Q407.313-666 392.632-666q-14.257 0-24.944 11.738Q357-642.525 357-628v324Zm173 0q0 14.1 11.551 25.05 11.551 10.95 25.8 10.95t25.949-10.95Q605-289.9 605-304v-324q0-14.525-11.545-26.262Q581.91-666 566.93-666q-14.555 0-25.742 11.738Q530-642.525 530-628v324Z"/></svg>