<svg xmlns="http://www.w3.org/2000/svg" height="48" viewBox="0 -960 960 960" width="48"><path d="M378.124-860q-17.849 0-28.986-12.06Q338-884.119 338-900.86q0-18.14 11.138-28.64 11.137-10.5 28.986-10.5h204.752q16.874 0 27.999 10.488T622-901.009q0 17.641-11.125 29.325Q599.75-860 582.876-860H378.124Zm101.823 464q16.028 0 28.04-11.487Q520-418.975 520-436v-150q0-16.05-11.752-27.525Q496.495-625 480.035-625 464-625 452.5-613.525T441-586v150q0 17.025 11.46 28.513Q463.92-396 479.947-396Zm-.18 355q-79.562 0-149.065-30.022-69.503-30.023-121.632-81.702-52.128-51.679-81.599-121.17Q98-343.385 98-422.857q0-79.471 29.562-149.06 29.561-69.589 81.615-121.326 52.053-51.737 121.629-82.247Q400.382-806 480-806q70 0 130 22t108 63l31-30q11-12 28.5-12t28.5 12q11 12 11 29.5T806-693l-30 30q38 43 62.5 100.5T863-423q0 79.683-30.086 149.288t-82.069 121.431q-51.983 51.825-121.75 81.553Q559.328-41 479.767-41Z"/></svg>