<svg xmlns="http://www.w3.org/2000/svg" height="48" viewBox="0 -960 960 960" width="48"><path d="M326-150h308v-116.452Q634-334 589.931-382q-44.07-48-109.763-48-65.693 0-109.931 48.007Q326-333.986 326-266.442V-150Zm450 91H185q-19.35 0-32.675-12.86Q139-84.72 139-104.36T152.325-137Q165.65-150 185-150h50v-116.652Q235-336 268-393.5t93-86.5q-60-31-93-88t-33-126.348V-810h-50q-19.35 0-32.675-13.56Q139-837.119 139-855.772q0-20.053 13.325-33.14Q165.65-902 185-902h591q18.25 0 32.125 13.263T822-855.921q0 19.553-13.875 32.737Q794.25-810 776-810h-50v115.652Q726-625 692.5-568T600-480q59 29 92.5 86.637T726-267v117h50q18.25 0 32.125 13.375Q822-123.249 822-104.509q0 20.14-13.875 32.825Q794.25-59 776-59Z"/></svg>